<svg width="126" height="41" viewBox="0 0 126 41" fill="none" xmlns="http://www.w3.org/2000/svg">
<g clip-path="url(#clip0_57_19)">
<path d="M36.3933 0C38.9375 0 41 2.06251 41 4.60674V36.3933C41 38.9375 38.9375 41 36.3933 41H4.60674C2.06251 41 6.67802e-08 38.9375 0 36.3933V4.60674C0 2.06251 2.06251 6.67784e-08 4.60674 0H36.3933ZM23.529 20.3219V20.3268C16.6085 20.5156 11.0564 26.1849 11.0562 33.151H16.0453C16.0455 28.8212 19.5555 25.3111 23.8853 25.311H29.9438V20.3219H23.529ZM11.0562 15.6895V20.6786H16.0453V15.6895H11.0562ZM24.9547 7.84947C24.9544 12.1792 21.4444 15.6894 17.1147 15.6895V20.6786C24.1999 20.6785 29.9435 14.9346 29.9438 7.84947H24.9547Z" fill="white"/>
<g clip-path="url(#clip1_57_19)">
<path d="M55.3514 9.85796C55.2983 9.36174 55.0748 8.97538 54.6809 8.69886C54.2908 8.42235 53.7832 8.28409 53.1582 8.28409C52.7188 8.28409 52.3419 8.35038 52.0275 8.48296C51.7131 8.61553 51.4726 8.79546 51.3059 9.02273C51.1392 9.25 51.054 9.50947 51.0502 9.80114C51.0502 10.0436 51.1051 10.2538 51.215 10.4318C51.3286 10.6098 51.482 10.7614 51.6752 10.8864C51.8684 11.0076 52.0824 11.1098 52.3173 11.1932C52.5521 11.2765 52.7889 11.3466 53.0275 11.4034L54.1184 11.6761C54.5578 11.7784 54.9801 11.9167 55.3854 12.0909C55.7945 12.2651 56.1601 12.4848 56.482 12.75C56.8078 13.0151 57.0654 13.3352 57.2548 13.7102C57.4442 14.0852 57.5389 14.5246 57.5389 15.0284C57.5389 15.7102 57.3646 16.3106 57.0161 16.8295C56.6676 17.3447 56.1639 17.7481 55.5048 18.0398C54.8495 18.3277 54.0559 18.4716 53.1241 18.4716C52.2188 18.4716 51.4328 18.3314 50.7661 18.0511C50.1032 17.7708 49.5843 17.3617 49.2093 16.8239C48.8381 16.286 48.6373 15.6307 48.607 14.858H50.6809C50.7112 15.2633 50.8362 15.6004 51.0559 15.8693C51.2756 16.1383 51.5616 16.339 51.9139 16.4716C52.2699 16.6042 52.6676 16.6705 53.107 16.6705C53.5654 16.6705 53.9669 16.6023 54.3116 16.4659C54.6601 16.3258 54.9328 16.1326 55.1298 15.8864C55.3267 15.6364 55.4271 15.3447 55.4309 15.0114C55.4271 14.7083 55.3381 14.4583 55.1639 14.2614C54.9896 14.0606 54.7453 13.8939 54.4309 13.7614C54.1203 13.625 53.7567 13.5038 53.34 13.3977L52.0161 13.0568C51.0578 12.8106 50.3002 12.4375 49.7434 11.9375C49.1904 11.4337 48.9139 10.7651 48.9139 9.93182C48.9139 9.24621 49.0995 8.64583 49.4707 8.13068C49.8457 7.61553 50.3551 7.21591 50.9991 6.93182C51.643 6.64394 52.3722 6.5 53.1866 6.5C54.0123 6.5 54.7358 6.64394 55.357 6.93182C55.982 7.21591 56.4726 7.61174 56.8286 8.11932C57.1847 8.62311 57.3684 9.20265 57.3798 9.85796H55.3514ZM61.7509 18.4659C60.8759 18.4659 60.1202 18.2841 59.4838 17.9205C58.8513 17.553 58.3645 17.0341 58.0236 16.3636C57.6827 15.6894 57.5122 14.8958 57.5122 13.983C57.5122 13.0852 57.6827 12.2973 58.0236 11.6193C58.3683 10.9375 58.8494 10.4072 59.4668 10.0284C60.0842 9.64583 60.8096 9.45455 61.6429 9.45455C62.1808 9.45455 62.6884 9.54167 63.1657 9.71591C63.6467 9.88636 64.071 10.1515 64.4384 10.5114C64.8096 10.8712 65.1013 11.3295 65.3134 11.8864C65.5255 12.4394 65.6316 13.0985 65.6316 13.8636V14.4943H58.4782V13.108H63.66C63.6562 12.714 63.571 12.3636 63.4043 12.0568C63.2376 11.7462 63.0047 11.5019 62.7054 11.3239C62.41 11.1458 62.0653 11.0568 61.6713 11.0568C61.2509 11.0568 60.8816 11.1591 60.5634 11.3636C60.2452 11.5644 59.9971 11.8295 59.8191 12.1591C59.6448 12.4848 59.5558 12.8428 59.552 13.233V14.4432C59.552 14.9508 59.6448 15.3864 59.8304 15.75C60.016 16.1098 60.2755 16.3864 60.6088 16.5795C60.9422 16.7689 61.3323 16.8636 61.7793 16.8636C62.0785 16.8636 62.3494 16.822 62.5918 16.7386C62.8342 16.6515 63.0444 16.5246 63.2225 16.358C63.4005 16.1913 63.535 15.9848 63.6259 15.7386L65.5463 15.9545C65.4251 16.4621 65.1941 16.9053 64.8532 17.2841C64.516 17.6591 64.0842 17.9508 63.5577 18.1591C63.0312 18.3636 62.4289 18.4659 61.7509 18.4659ZM67.9884 13.1818V18.2955H65.9316V9.56818H67.8975V11.0511H67.9998C68.2006 10.5625 68.5206 10.1742 68.96 9.88636C69.4032 9.59849 69.9506 9.45455 70.6021 9.45455C71.2043 9.45455 71.729 9.58333 72.1759 9.84091C72.6267 10.0985 72.9752 10.4716 73.2214 10.9602C73.4714 11.4489 73.5945 12.0417 73.5907 12.7386V18.2955H71.5339V13.0568C71.5339 12.4735 71.3824 12.017 71.0793 11.6875C70.7801 11.358 70.3653 11.1932 69.835 11.1932C69.4752 11.1932 69.1551 11.2727 68.8748 11.4318C68.5983 11.5871 68.3805 11.8125 68.2214 12.108C68.0661 12.4034 67.9884 12.7614 67.9884 13.1818ZM78.5996 9.56818V11.1591H73.5825V9.56818H78.5996ZM74.8212 7.47727H76.878V15.6705C76.878 15.947 76.9196 16.1591 77.003 16.3068C77.0901 16.4508 77.2037 16.5492 77.3439 16.6023C77.484 16.6553 77.6393 16.6818 77.8098 16.6818C77.9386 16.6818 78.056 16.6723 78.1621 16.6534C78.2719 16.6345 78.3553 16.6174 78.4121 16.6023L78.7587 18.2102C78.6488 18.2481 78.4916 18.2898 78.2871 18.3352C78.0863 18.3807 77.8401 18.4072 77.5484 18.4148C77.0333 18.4299 76.5693 18.3523 76.1564 18.1818C75.7435 18.0076 75.4159 17.7386 75.1734 17.375C74.9348 17.0114 74.8174 16.5568 74.8212 16.0114V7.47727ZM78.8797 18.2955V9.56818H80.8741V11.0227H80.965C81.1241 10.5189 81.3968 10.1307 81.7832 9.85796C82.1733 9.58144 82.6184 9.44318 83.1184 9.44318C83.232 9.44318 83.3589 9.44886 83.4991 9.46023C83.643 9.4678 83.7623 9.48106 83.857 9.5V11.392C83.7699 11.3617 83.6316 11.3352 83.4422 11.3125C83.2566 11.286 83.0767 11.2727 82.9025 11.2727C82.5275 11.2727 82.1903 11.3542 81.8911 11.517C81.5957 11.6761 81.3627 11.8977 81.1922 12.1818C81.0218 12.4659 80.9366 12.7936 80.9366 13.1648V18.2955H78.8797ZM86.1386 18.4716C85.5856 18.4716 85.0875 18.3731 84.6443 18.1761C84.2049 17.9754 83.8564 17.6799 83.5988 17.2898C83.345 16.8996 83.2182 16.4186 83.2182 15.8466C83.2182 15.3542 83.3091 14.947 83.4909 14.625C83.6727 14.303 83.9208 14.0455 84.2352 13.8523C84.5496 13.6591 84.9038 13.5133 85.2977 13.4148C85.6954 13.3125 86.1064 13.2386 86.5307 13.1932C87.042 13.1401 87.4568 13.0928 87.775 13.0511C88.0932 13.0057 88.3242 12.9375 88.4682 12.8466C88.6159 12.7519 88.6897 12.6061 88.6897 12.4091V12.375C88.6897 11.947 88.5628 11.6155 88.3091 11.3807C88.0553 11.1458 87.6897 11.0284 87.2125 11.0284C86.7087 11.0284 86.3091 11.1383 86.0136 11.358C85.7219 11.5776 85.525 11.8371 85.4227 12.1364L83.5022 11.8636C83.6538 11.3333 83.9038 10.8901 84.2522 10.5341C84.6007 10.1742 85.0269 9.9053 85.5307 9.72727C86.0344 9.54546 86.5913 9.45455 87.2011 9.45455C87.6216 9.45455 88.0401 9.50379 88.4568 9.60227C88.8735 9.70076 89.2541 9.86364 89.5988 10.0909C89.9435 10.3144 90.22 10.6193 90.4284 11.0057C90.6405 11.392 90.7466 11.875 90.7466 12.4545V18.2955H88.7693V17.0966H88.7011C88.5761 17.339 88.4 17.5663 88.1727 17.7784C87.9492 17.9867 87.667 18.1553 87.3261 18.2841C86.989 18.4091 86.5932 18.4716 86.1386 18.4716ZM86.6727 16.9602C87.0856 16.9602 87.4435 16.8788 87.7466 16.7159C88.0496 16.5492 88.2825 16.3295 88.4454 16.0568C88.6121 15.7841 88.6954 15.4867 88.6954 15.1648V14.1364C88.631 14.1894 88.5212 14.2386 88.3659 14.2841C88.2144 14.3295 88.0439 14.3693 87.8545 14.4034C87.6651 14.4375 87.4776 14.4678 87.292 14.4943C87.1064 14.5208 86.9454 14.5436 86.8091 14.5625C86.5022 14.6042 86.2276 14.6723 85.9852 14.767C85.7428 14.8617 85.5515 14.9943 85.4113 15.1648C85.2712 15.3314 85.2011 15.5473 85.2011 15.8125C85.2011 16.1913 85.3394 16.4773 85.6159 16.6705C85.8924 16.8636 86.2447 16.9602 86.6727 16.9602ZM97.7895 9.85796C97.7365 9.36174 97.513 8.97538 97.1191 8.69886C96.7289 8.42235 96.2213 8.28409 95.5963 8.28409C95.1569 8.28409 94.78 8.35038 94.4657 8.48296C94.1513 8.61553 93.9107 8.79546 93.7441 9.02273C93.5774 9.25 93.4922 9.50947 93.4884 9.80114C93.4884 10.0436 93.5433 10.2538 93.6532 10.4318C93.7668 10.6098 93.9202 10.7614 94.1134 10.8864C94.3066 11.0076 94.5206 11.1098 94.7554 11.1932C94.9903 11.2765 95.227 11.3466 95.4657 11.4034L96.5566 11.6761C96.996 11.7784 97.4183 11.9167 97.8236 12.0909C98.2327 12.2651 98.5982 12.4848 98.9202 12.75C99.246 13.0151 99.5035 13.3352 99.6929 13.7102C99.8823 14.0852 99.977 14.5246 99.977 15.0284C99.977 15.7102 99.8028 16.3106 99.4543 16.8295C99.1058 17.3447 98.602 17.7481 97.9429 18.0398C97.2876 18.3277 96.4941 18.4716 95.5622 18.4716C94.6569 18.4716 93.871 18.3314 93.2043 18.0511C92.5414 17.7708 92.0225 17.3617 91.6475 16.8239C91.2763 16.286 91.0755 15.6307 91.0452 14.858H93.1191C93.1494 15.2633 93.2744 15.6004 93.4941 15.8693C93.7138 16.1383 93.9997 16.339 94.352 16.4716C94.7081 16.6042 95.1058 16.6705 95.5452 16.6705C96.0035 16.6705 96.405 16.6023 96.7497 16.4659C97.0982 16.3258 97.371 16.1326 97.5679 15.8864C97.7649 15.6364 97.8653 15.3447 97.8691 15.0114C97.8653 14.7083 97.7763 14.4583 97.602 14.2614C97.4278 14.0606 97.1835 13.8939 96.8691 13.7614C96.5585 13.625 96.1948 13.5038 95.7782 13.3977L94.4543 13.0568C93.496 12.8106 92.7384 12.4375 92.1816 11.9375C91.6285 11.4337 91.352 10.7651 91.352 9.93182C91.352 9.24621 91.5376 8.64583 91.9088 8.13068C92.2838 7.61553 92.7933 7.21591 93.4372 6.93182C94.0812 6.64394 94.8104 6.5 95.6247 6.5C96.4505 6.5 97.174 6.64394 97.7952 6.93182C98.4202 7.21591 98.9107 7.61174 99.2668 8.11932C99.6229 8.62311 99.8066 9.20265 99.8179 9.85796H97.7895ZM104.683 9.56818V11.1591H99.6663V9.56818H104.683ZM100.905 7.47727H102.962V15.6705C102.962 15.947 103.003 16.1591 103.087 16.3068C103.174 16.4508 103.287 16.5492 103.428 16.6023C103.568 16.6553 103.723 16.6818 103.893 16.6818C104.022 16.6818 104.14 16.6723 104.246 16.6534C104.356 16.6345 104.439 16.6174 104.496 16.6023L104.842 18.2102C104.733 18.2481 104.575 18.2898 104.371 18.3352C104.17 18.3807 103.924 18.4072 103.632 18.4148C103.117 18.4299 102.653 18.3523 102.24 18.1818C101.827 18.0076 101.5 17.7386 101.257 17.375C101.018 17.0114 100.901 16.5568 100.905 16.0114V7.47727ZM108.733 18.4659C107.858 18.4659 107.103 18.2841 106.466 17.9205C105.834 17.553 105.347 17.0341 105.006 16.3636C104.665 15.6894 104.495 14.8958 104.495 13.983C104.495 13.0852 104.665 12.2973 105.006 11.6193C105.351 10.9375 105.832 10.4072 106.449 10.0284C107.067 9.64583 107.792 9.45455 108.625 9.45455C109.163 9.45455 109.671 9.54167 110.148 9.71591C110.629 9.88636 111.053 10.1515 111.421 10.5114C111.792 10.8712 112.084 11.3295 112.296 11.8864C112.508 12.4394 112.614 13.0985 112.614 13.8636V14.4943H105.461V13.108H110.642C110.639 12.714 110.553 12.3636 110.387 12.0568C110.22 11.7462 109.987 11.5019 109.688 11.3239C109.392 11.1458 109.048 11.0568 108.654 11.0568C108.233 11.0568 107.864 11.1591 107.546 11.3636C107.228 11.5644 106.98 11.8295 106.802 12.1591C106.627 12.4848 106.538 12.8428 106.534 13.233V14.4432C106.534 14.9508 106.627 15.3864 106.813 15.75C106.998 16.1098 107.258 16.3864 107.591 16.5795C107.925 16.7689 108.315 16.8636 108.762 16.8636C109.061 16.8636 109.332 16.822 109.574 16.7386C109.817 16.6515 110.027 16.5246 110.205 16.358C110.383 16.1913 110.517 15.9848 110.608 15.7386L112.529 15.9545C112.408 16.4621 112.177 16.9053 111.836 17.2841C111.498 17.6591 111.067 17.9508 110.54 18.1591C110.014 18.3636 109.411 18.4659 108.733 18.4659ZM116.778 18.4659C115.903 18.4659 115.147 18.2841 114.511 17.9205C113.878 17.553 113.391 17.0341 113.05 16.3636C112.71 15.6894 112.539 14.8958 112.539 13.983C112.539 13.0852 112.71 12.2973 113.05 11.6193C113.395 10.9375 113.876 10.4072 114.494 10.0284C115.111 9.64583 115.836 9.45455 116.67 9.45455C117.208 9.45455 117.715 9.54167 118.192 9.71591C118.674 9.88636 119.098 10.1515 119.465 10.5114C119.836 10.8712 120.128 11.3295 120.34 11.8864C120.552 12.4394 120.658 13.0985 120.658 13.8636V14.4943H113.505V13.108H118.687C118.683 12.714 118.598 12.3636 118.431 12.0568C118.264 11.7462 118.031 11.5019 117.732 11.3239C117.437 11.1458 117.092 11.0568 116.698 11.0568C116.278 11.0568 115.908 11.1591 115.59 11.3636C115.272 11.5644 115.024 11.8295 114.846 12.1591C114.672 12.4848 114.583 12.8428 114.579 13.233V14.4432C114.579 14.9508 114.672 15.3864 114.857 15.75C115.043 16.1098 115.302 16.3864 115.636 16.5795C115.969 16.7689 116.359 16.8636 116.806 16.8636C117.105 16.8636 117.376 16.822 117.619 16.7386C117.861 16.6515 118.071 16.5246 118.249 16.358C118.427 16.1913 118.562 15.9848 118.653 15.7386L120.573 15.9545C120.452 16.4621 120.221 16.9053 119.88 17.2841C119.543 17.6591 119.111 17.9508 118.585 18.1591C118.058 18.3636 117.456 18.4659 116.778 18.4659ZM123.015 6.65909V18.2955H120.958V6.65909H123.015ZM51.4764 34.2955L48.1923 22.6591H50.4593L52.5559 31.2102H52.6639L54.9025 22.6591H56.965L59.2093 31.2159H59.3116L61.4082 22.6591H63.6753L60.3912 34.2955H58.3116L55.982 26.1307H55.8911L53.5559 34.2955H51.4764ZM66.5222 34.4659C65.6699 34.4659 64.9313 34.2784 64.3063 33.9034C63.6813 33.5284 63.1964 33.0038 62.8517 32.3295C62.5108 31.6553 62.3404 30.8674 62.3404 29.9659C62.3404 29.0644 62.5108 28.2746 62.8517 27.5966C63.1964 26.9186 63.6813 26.392 64.3063 26.017C64.9313 25.642 65.6699 25.4545 66.5222 25.4545C67.3745 25.4545 68.1131 25.642 68.7381 26.017C69.3631 26.392 69.846 26.9186 70.187 27.5966C70.5317 28.2746 70.704 29.0644 70.704 29.9659C70.704 30.8674 70.5317 31.6553 70.187 32.3295C69.846 33.0038 69.3631 33.5284 68.7381 33.9034C68.1131 34.2784 67.3745 34.4659 66.5222 34.4659ZM66.5335 32.8182C66.9957 32.8182 67.382 32.6913 67.6926 32.4375C68.0032 32.1799 68.2343 31.8352 68.3858 31.4034C68.5411 30.9716 68.6188 30.4905 68.6188 29.9602C68.6188 29.4261 68.5411 28.9432 68.3858 28.5114C68.2343 28.0758 68.0032 27.7292 67.6926 27.4716C67.382 27.214 66.9957 27.0852 66.5335 27.0852C66.0601 27.0852 65.6661 27.214 65.3517 27.4716C65.0411 27.7292 64.8082 28.0758 64.6529 28.5114C64.5014 28.9432 64.4256 29.4261 64.4256 29.9602C64.4256 30.4905 64.5014 30.9716 64.6529 31.4034C64.8082 31.8352 65.0411 32.1799 65.3517 32.4375C65.6661 32.6913 66.0601 32.8182 66.5335 32.8182ZM71.0097 34.2955V25.5682H73.0041V27.0227H73.095C73.2541 26.5189 73.5268 26.1307 73.9132 25.858C74.3033 25.5814 74.7484 25.4432 75.2484 25.4432C75.362 25.4432 75.4889 25.4489 75.6291 25.4602C75.773 25.4678 75.8923 25.4811 75.987 25.5V27.392C75.8999 27.3617 75.7616 27.3352 75.5722 27.3125C75.3866 27.286 75.2067 27.2727 75.0325 27.2727C74.6575 27.2727 74.3203 27.3542 74.0211 27.517C73.7257 27.6761 73.4927 27.8977 73.3222 28.1818C73.1518 28.4659 73.0666 28.7936 73.0666 29.1648V34.2955H71.0097ZM77.7885 31.5568L77.7828 29.0739H78.1124L81.2487 25.5682H83.6521L79.7942 29.8636H79.368L77.7885 31.5568ZM75.9135 34.2955V22.6591H77.9703V34.2955H75.9135ZM81.3908 34.2955L78.5499 30.3239L79.9362 28.875L83.851 34.2955H81.3908ZM90.4806 27.875L88.6056 28.0795C88.5526 27.8902 88.4598 27.7121 88.3272 27.5455C88.1984 27.3788 88.0242 27.2443 87.8045 27.142C87.5848 27.0398 87.3158 26.9886 86.9976 26.9886C86.5696 26.9886 86.2098 27.0814 85.9181 27.267C85.6302 27.4527 85.4882 27.6932 85.492 27.9886C85.4882 28.2424 85.581 28.4489 85.7704 28.608C85.9635 28.767 86.2817 28.8977 86.7249 29L88.2135 29.3182C89.0393 29.4962 89.6529 29.7784 90.0545 30.1648C90.4598 30.5511 90.6643 31.0568 90.6681 31.6818C90.6643 32.2311 90.5033 32.7159 90.1851 33.1364C89.8707 33.553 89.4332 33.8788 88.8726 34.1136C88.312 34.3485 87.6681 34.4659 86.9408 34.4659C85.8726 34.4659 85.0128 34.2424 84.3613 33.7955C83.7098 33.3447 83.3215 32.7178 83.1965 31.9148L85.2022 31.7216C85.2931 32.1155 85.4863 32.4129 85.7817 32.6136C86.0772 32.8144 86.4617 32.9148 86.9351 32.9148C87.4238 32.9148 87.8158 32.8144 88.1113 32.6136C88.4105 32.4129 88.5601 32.1648 88.5601 31.8693C88.5601 31.6193 88.4635 31.4129 88.2704 31.25C88.081 31.0871 87.7855 30.9621 87.384 30.875L85.8954 30.5625C85.0582 30.3883 84.4389 30.0947 84.0374 29.6818C83.6359 29.2652 83.437 28.7386 83.4408 28.1023C83.437 27.5644 83.5829 27.0985 83.8783 26.7045C84.1776 26.3068 84.5923 26 85.1226 25.7841C85.6567 25.5644 86.2723 25.4545 86.9692 25.4545C87.992 25.4545 88.7969 25.6723 89.384 26.108C89.9749 26.5436 90.3404 27.1326 90.4806 27.875Z" fill="white"/>
</g>
</g>
<defs>
<clipPath id="clip0_57_19">
<rect width="126" height="41" fill="white"/>
</clipPath>
<clipPath id="clip1_57_19">
<rect width="75" height="28" fill="white" transform="translate(48.1923 6.5)"/>
</clipPath>
</defs>
</svg>
